<svg width="211" height="72" viewBox="0 0 211 72" fill="none" xmlns="http://www.w3.org/2000/svg">
<rect y="10" width="82" height="43" rx="5" fill="white"/>
<path d="M5.4 46V17.8H15.32C19.4533 17.8 22.4267 18.2933 24.24 19.28C26.0533 20.24 26.96 22.0533 26.96 24.72C26.96 25.44 26.8667 26.0933 26.68 26.68C26.52 27.2667 26.3467 27.7467 26.16 28.12C25.9733 28.4933 25.6533 28.8267 25.2 29.12C24.7467 29.3867 24.4 29.5867 24.16 29.72C23.92 29.8533 23.4667 29.9733 22.8 30.08C22.16 30.1867 21.7333 30.2533 21.52 30.28C21.3333 30.28 20.8933 30.3067 20.2 30.36V31.96C21.2667 31.9867 22.1333 32.04 22.8 32.12C23.4667 32.2 24.24 32.3733 25.12 32.64C26 32.88 26.6933 33.2267 27.2 33.68C27.7067 34.1067 28.1333 34.7333 28.48 35.56C28.8533 36.3867 29.04 37.3733 29.04 38.52C29.04 39.7733 28.8 40.8533 28.32 41.76C27.8667 42.6667 27.2667 43.3867 26.52 43.92C25.7733 44.4533 24.8 44.88 23.6 45.2C22.4267 45.52 21.2267 45.7333 20 45.84C18.8 45.9467 17.4 46 15.8 46H5.4ZM11.8 28.52H16.12C16.7867 28.52 17.28 28.52 17.6 28.52C17.92 28.4933 18.3067 28.44 18.76 28.36C19.24 28.28 19.5733 28.16 19.76 28C19.9733 27.8133 20.16 27.56 20.32 27.24C20.48 26.8933 20.56 26.4667 20.56 25.96C20.56 25.4533 20.48 25.04 20.32 24.72C20.16 24.3733 19.9733 24.12 19.76 23.96C19.5733 23.7733 19.24 23.64 18.76 23.56C18.3067 23.48 17.92 23.44 17.6 23.44C17.28 23.4133 16.7867 23.4 16.12 23.4H11.8V28.52ZM11.8 40.4H16.6C17.56 40.4 18.2667 40.4 18.72 40.4C19.1733 40.3733 19.7067 40.3067 20.32 40.2C20.96 40.0933 21.4 39.9333 21.64 39.72C21.9067 39.5067 22.1333 39.2 22.32 38.8C22.5333 38.4 22.64 37.8933 22.64 37.28C22.64 36.6667 22.5333 36.16 22.32 35.76C22.1333 35.3333 21.9067 35.0133 21.64 34.8C21.4 34.5867 20.96 34.4267 20.32 34.32C19.7067 34.2133 19.1733 34.16 18.72 34.16C18.2667 34.1333 17.56 34.12 16.6 34.12H11.8V40.4ZM50.6453 23.4H44.2453V40.4H50.6453V46H31.4453V40.4H37.8453V23.4H31.4453V17.8H50.6453V23.4ZM78.6884 17.8V23.4H69.4884V46H63.0884V23.4H53.8484V17.8H78.6884Z" fill="black"/>
<path d="M109.366 46L104.326 38.2L99.8859 40.28V46H93.4859V16.6H99.8859V33.68L109.126 29.44L109.046 25.8H115.446V30.2C115.446 32.0667 114.606 33.4 112.926 34.2L109.806 35.64L116.646 46H109.366ZM117.061 35.88C117.061 32.4933 118.128 29.9067 120.261 28.12C122.394 26.3067 125.128 25.4 128.461 25.4C131.794 25.4 134.514 26.3067 136.621 28.12C138.754 29.9067 139.821 32.4933 139.821 35.88C139.821 39.2667 138.754 41.8667 136.621 43.68C134.514 45.4933 131.794 46.4 128.461 46.4C125.128 46.4 122.394 45.5067 120.261 43.72C118.128 41.9067 117.061 39.2933 117.061 35.88ZM123.461 35.88C123.461 37.5333 123.901 38.7733 124.781 39.6C125.661 40.4 126.888 40.8 128.461 40.8C130.008 40.8 131.221 40.4 132.101 39.6C132.981 38.7733 133.421 37.5333 133.421 35.88C133.421 34.2533 132.981 33.04 132.101 32.24C131.221 31.4133 130.008 31 128.461 31C126.888 31 125.661 31.4133 124.781 32.24C123.901 33.04 123.461 34.2533 123.461 35.88ZM157.787 25.8H164.107L158.987 46H145.787L140.627 25.8H146.947L151.587 44.4H153.187L157.787 25.8ZM176.813 22.96C176.146 23.52 175.213 23.8 174.013 23.8C172.813 23.8 171.879 23.5333 171.213 23C170.573 22.44 170.253 21.64 170.253 20.6C170.253 19.5867 170.586 18.8 171.253 18.24C171.919 17.68 172.839 17.4 174.013 17.4C175.213 17.4 176.146 17.68 176.813 18.24C177.506 18.8 177.853 19.5867 177.853 20.6C177.853 21.6133 177.506 22.4 176.813 22.96ZM165.733 46V40.4H171.453V31.16L166.533 31.4V25.8L174.133 25.4C175.253 25.3467 176.106 25.6133 176.693 26.2C177.306 26.7867 177.613 27.64 177.613 28.76V40.4H183.333V46H165.733ZM197.912 31C196.045 31 194.618 31.5867 193.632 32.76C192.645 33.9067 192.152 35.8267 192.152 38.52V46H185.752V25.8H192.152V28.24L190.952 31.84H192.552C192.978 29.92 193.845 28.3733 195.152 27.2C196.458 26 198.138 25.4 200.192 25.4C202.805 25.4 204.832 26.24 206.272 27.92C207.738 29.6 208.472 31.9867 208.472 35.08V46H202.072V36.08C202.072 34.24 201.752 32.9333 201.112 32.16C200.498 31.3867 199.432 31 197.912 31Z" fill="white"/>
</svg>
