<svg width="178" height="49" viewBox="0 0 178 49" fill="none" xmlns="http://www.w3.org/2000/svg">
<path d="M71.72 32.24L71.52 27.36L87.4 11H91.96L79.68 23.96L77.44 26.44L71.72 32.24ZM68.2 39V11H72.2V39H68.2ZM88.04 39L76.56 25.64L79.24 22.68L92.72 39H88.04ZM104.533 39.24C102.399 39.24 100.506 38.7733 98.8525 37.84C97.1992 36.9067 95.8925 35.6267 94.9325 34C93.9725 32.3467 93.4925 30.48 93.4925 28.4C93.4925 26.2933 93.9725 24.4267 94.9325 22.8C95.8925 21.1733 97.1992 19.9067 98.8525 19C100.506 18.0667 102.399 17.6 104.533 17.6C106.639 17.6 108.519 18.0667 110.173 19C111.853 19.9067 113.159 21.1733 114.093 22.8C115.053 24.4 115.533 26.2667 115.533 28.4C115.533 30.5067 115.053 32.3733 114.093 34C113.159 35.6267 111.853 36.9067 110.173 37.84C108.519 38.7733 106.639 39.24 104.533 39.24ZM104.533 35.88C105.893 35.88 107.106 35.5733 108.173 34.96C109.266 34.3467 110.119 33.48 110.733 32.36C111.346 31.2133 111.653 29.8933 111.653 28.4C111.653 26.88 111.346 25.5733 110.733 24.48C110.119 23.36 109.266 22.4933 108.173 21.88C107.106 21.2667 105.893 20.96 104.533 20.96C103.173 20.96 101.959 21.2667 100.893 21.88C99.8258 22.4933 98.9725 23.36 98.3325 24.48C97.6925 25.5733 97.3725 26.88 97.3725 28.4C97.3725 29.8933 97.6925 31.2133 98.3325 32.36C98.9725 33.48 99.8258 34.3467 100.893 34.96C101.959 35.5733 103.173 35.88 104.533 35.88ZM125.817 39L116.537 17.8H120.537L128.777 37H126.857L135.257 17.8H139.017L129.737 39H125.817ZM142.601 39V17.8H146.441V39H142.601ZM144.521 13.72C143.774 13.72 143.148 13.48 142.641 13C142.161 12.52 141.921 11.9333 141.921 11.24C141.921 10.52 142.161 9.92 142.641 9.44C143.148 8.96 143.774 8.72 144.521 8.72C145.268 8.72 145.881 8.96 146.361 9.44C146.868 9.89333 147.121 10.4667 147.121 11.16C147.121 11.88 146.881 12.4933 146.401 13C145.921 13.48 145.294 13.72 144.521 13.72ZM165.093 17.6C166.826 17.6 168.346 17.9333 169.653 18.6C170.986 19.2667 172.026 20.28 172.773 21.64C173.519 23 173.893 24.72 173.893 26.8V39H170.053V27.24C170.053 25.1867 169.546 23.64 168.533 22.6C167.546 21.56 166.146 21.04 164.333 21.04C162.973 21.04 161.786 21.3067 160.773 21.84C159.759 22.3733 158.973 23.16 158.413 24.2C157.879 25.24 157.613 26.5333 157.613 28.08V39H153.773V17.8H157.453V23.52L156.853 22C157.546 20.6133 158.613 19.5333 160.053 18.76C161.493 17.9867 163.173 17.6 165.093 17.6Z" fill="white"/>
<rect y="5" width="57" height="38" rx="4" fill="white"/>
<path d="M15.364 38.266C13.6413 38.266 12.1087 37.886 10.766 37.126C9.42333 36.366 8.35933 35.226 7.574 33.706C6.814 32.1607 6.434 30.21 6.434 27.854C6.434 25.4727 6.82667 23.522 7.612 22.002C8.42267 20.482 9.49933 19.3547 10.842 18.62C12.21 17.86 13.7173 17.48 15.364 17.48C17.3653 17.48 19.126 17.9107 20.646 18.772C22.1913 19.6333 23.4073 20.8367 24.294 22.382C25.206 23.9273 25.662 25.7513 25.662 27.854C25.662 29.9567 25.206 31.7807 24.294 33.326C23.4073 34.8713 22.1913 36.0873 20.646 36.974C19.126 37.8353 17.3653 38.266 15.364 38.266ZM4.116 38V9.804H8.866V22.42L8.486 27.816L8.638 33.212V38H4.116ZM14.832 34.2C15.972 34.2 16.9853 33.9467 17.872 33.44C18.784 32.9333 19.506 32.1987 20.038 31.236C20.57 30.2733 20.836 29.146 20.836 27.854C20.836 26.5367 20.57 25.4093 20.038 24.472C19.506 23.5093 18.784 22.7747 17.872 22.268C16.9853 21.7613 15.972 21.508 14.832 21.508C13.692 21.508 12.666 21.7613 11.754 22.268C10.842 22.7747 10.12 23.5093 9.588 24.472C9.056 25.4093 8.79 26.5367 8.79 27.854C8.79 29.146 9.056 30.2733 9.588 31.236C10.12 32.1987 10.842 32.9333 11.754 33.44C12.666 33.9467 13.692 34.2 14.832 34.2ZM30.1668 38V17.708H34.9168V38H30.1668ZM32.5608 14.364C31.6741 14.364 30.9394 14.0853 30.3568 13.528C29.7994 12.9707 29.5208 12.2993 29.5208 11.514C29.5208 10.7033 29.7994 10.032 30.3568 9.5C30.9394 8.94267 31.6741 8.664 32.5608 8.664C33.4474 8.664 34.1694 8.93 34.7268 9.462C35.3094 9.96867 35.6008 10.6147 35.6008 11.4C35.6008 12.236 35.3221 12.9453 34.7648 13.528C34.2074 14.0853 33.4728 14.364 32.5608 14.364ZM48.7892 38.266C46.5598 38.266 44.8372 37.696 43.6212 36.556C42.4052 35.3907 41.7972 33.6807 41.7972 31.426V13.224H46.5472V31.312C46.5472 32.2747 46.7878 33.022 47.2692 33.554C47.7758 34.086 48.4725 34.352 49.3592 34.352C50.4232 34.352 51.3098 34.0733 52.0192 33.516L53.3492 36.898C52.7918 37.354 52.1078 37.696 51.2972 37.924C50.4865 38.152 49.6505 38.266 48.7892 38.266ZM38.4532 21.66V17.86H51.9812V21.66H38.4532Z" fill="black"/>
</svg>
